<svg xmlns="http://www.w3.org/2000/svg" version="1.1" xmlns:xlink="http://www.w3.org/1999/xlink" xmlns:svgjs="http://svgjs.com/svgjs" width="1920" height="800" preserveAspectRatio="none" viewBox="0 0 1920 800"><g mask="url(&quot;#SvgjsMask1085&quot;)" fill="none"><path d="M881.13 665.94a12.4 12.4 0 1 0 13.6-20.74z" fill="rgba(37, 45, 60, 1)"></path><path d="M399.26 589.18 a56.93 56.93 0 1 0 113.86 0 a56.93 56.93 0 1 0 -113.86 0z" stroke="rgba(183, 53, 53, 1)"></path><path d="M102.45 89.52a38.27 38.27 0 1 0-57.08 50.99z" fill="rgba(183, 53, 53, 1)"></path><path d="M854.99 753.01a6.42 6.42 0 1 0-4.81-11.91z" fill="rgba(249, 168, 38, 1)"></path><path d="M1639.87 63.32 a21.94 21.94 0 1 0 43.88 0 a21.94 21.94 0 1 0 -43.88 0z" stroke="rgba(249, 168, 38, 1)"></path><path d="M1166.38 68.65L1184.23 68.65L1184.23 86.5L1166.38 86.5z" fill="rgba(37, 45, 60, 1)"></path><path d="M899.52 615.37L928.15 615.37L928.15 624.58L899.52 624.58z" stroke="rgba(183, 53, 53, 1)"></path><path d="M166.35 553.19 a16.08 16.08 0 1 0 32.16 0 a16.08 16.08 0 1 0 -32.16 0z" stroke="rgba(183, 53, 53, 1)"></path><path d="M464.51 550.39 a43.06 43.06 0 1 0 86.12 0 a43.06 43.06 0 1 0 -86.12 0z" stroke="rgba(249, 168, 38, 1)"></path><path d="M949.7 48.12a10.96 10.96 0 1 0 21.9-1.04z" fill="rgba(183, 53, 53, 1)"></path><path d="M97.13 17.06L147.8 17.06L147.8 67.73L97.13 67.73z" stroke="rgba(37, 45, 60, 1)"></path><path d="M427.03 6.44 a58.04 58.04 0 1 0 116.08 0 a58.04 58.04 0 1 0 -116.08 0z" stroke="rgba(37, 45, 60, 1)"></path><path d="M254.94 649.21 a61.91 61.91 0 1 0 123.82 0 a61.91 61.91 0 1 0 -123.82 0z" fill="rgba(37, 45, 60, 1)"></path><path d="M1161.64 756.45a62.7 62.7 0 1 0-84.14-92.98z" stroke="rgba(249, 168, 38, 1)"></path><path d="M1803.07 625.57a36.76 36.76 0 1 0 70.84 19.67z" fill="rgba(37, 45, 60, 1)"></path><path d="M746.91 526.88L761.16 526.88L761.16 541.13L746.91 541.13z" stroke="rgba(183, 53, 53, 1)"></path><path d="M403.91 439.56a53.66 53.66 0 1 0 65.41-85.09z" fill="rgba(37, 45, 60, 1)"></path><path d="M1461.08 616.91L1533.41 616.91L1533.41 689.24L1461.08 689.24z" fill="rgba(183, 53, 53, 1)"></path><path d="M1318.87 670.7 a20.34 20.34 0 1 0 40.68 0 a20.34 20.34 0 1 0 -40.68 0z" fill="rgba(37, 45, 60, 1)"></path><path d="M316.09 120.65 a48.09 48.09 0 1 0 96.18 0 a48.09 48.09 0 1 0 -96.18 0z" fill="rgba(249, 168, 38, 1)"></path><path d="M1672.17 426.85L1686.1 426.85L1686.1 490.8L1672.17 490.8z" fill="rgba(249, 168, 38, 1)"></path><path d="M1828.68 89.5L1872.12 89.5L1872.12 132.94L1828.68 132.94z" fill="rgba(183, 53, 53, 1)"></path><path d="M1659.53 209.65L1701.13 209.65L1701.13 251.25L1659.53 251.25z" stroke="rgba(183, 53, 53, 1)"></path><path d="M486.46 680.64 a12.08 12.08 0 1 0 24.16 0 a12.08 12.08 0 1 0 -24.16 0z" stroke="rgba(37, 45, 60, 1)"></path><path d="M1473.64 399.52L1499.38 399.52L1499.38 425.26L1473.64 425.26z" fill="rgba(249, 168, 38, 1)"></path><path d="M1174.96 540.19L1208.61 540.19L1208.61 573.84L1174.96 573.84z" stroke="rgba(37, 45, 60, 1)"></path><path d="M1687.76 308.93a55.99 55.99 0 1 0-111.73-7.44z" fill="rgba(37, 45, 60, 1)"></path><path d="M577.73 57.05a15.5 15.5 0 1 0 18.38-24.96z" stroke="rgba(37, 45, 60, 1)"></path><path d="M550.55 443.34L594.45 443.34L594.45 468.88L550.55 468.88z" fill="rgba(249, 168, 38, 1)"></path><path d="M667.14 73.71 a17.91 17.91 0 1 0 35.82 0 a17.91 17.91 0 1 0 -35.82 0z" stroke="rgba(183, 53, 53, 1)"></path></g><defs><mask id="SvgjsMask1085"><rect width="1920" height="800" fill="#ffffff"></rect></mask></defs></svg>